<svg width="500" height="500" viewBox="0 0 500 500" fill="none" xmlns="http://www.w3.org/2000/svg">
<rect width="500" height="500" rx="95.6581" fill="#BCF285"/>
<path d="M262.359 115C282.755 115 299.577 118.526 312.824 125.579C326.072 132.536 335.936 141.924 342.417 153.742C348.898 165.465 352.138 178.474 352.138 192.77C352.138 205.35 349.898 215.739 345.419 223.936C341.035 232.132 335.221 238.613 327.978 243.378C320.83 248.143 313.062 251.67 304.675 253.957V256.816C313.633 257.388 322.64 260.533 331.694 266.251C340.748 271.969 348.326 280.166 354.426 290.841C360.525 301.515 363.575 314.572 363.575 330.012C363.575 344.689 360.239 357.889 353.567 369.611C346.896 381.334 336.365 390.626 321.974 397.488C307.582 404.35 288.854 407.782 265.79 407.782H160V115H262.359Z" fill="black"/>
</svg>
